<svg width="993" height="1410" viewBox="0 0 993 1410" fill="none" xmlns="http://www.w3.org/2000/svg">
<path opacity="0.7" d="M-381.333 1296.64C-381.333 1296.64 -107.825 1298.32 -102.368 1285.48C-96.8966 1272.62 -122.072 1250.07 -114.577 1267.8C-107.096 1285.48 -83.9773 1301.54 -52.5925 1298.34C-21.1084 1295.14 -18.6046 1283.86 -19.9045 1288.7C-21.2038 1293.53 -6.04527 1389.44 -36.852 1400.4C-67.5297 1411.3 -141.005 1409.36 -138.615 1376.26C-136.213 1342.97 -96.9017 1296.72 -99.6345 1303.13C-102.363 1309.53 -159.225 1371.44 -124.239 1381.05C-89.2057 1390.68 -36.4653 1406.72 -32.4936 1368.7C-28.4952 1330.43 -28.7465 1299.96 -17.1431 1254.77C-5.44874 1209.22 33.1379 1105.83 48.7747 1036.08C64.5991 965.465 92.3425 931.291 91.4985 914.298C90.6527 897.264 79.9262 880.332 84.5014 905.877C89.0563 931.326 115.817 941.182 115.817 941.182C115.817 941.182 144.697 779.168 129.892 819.342C115.199 859.231 84.3953 936.475 147.965 996.62C211.272 1056.52 434.147 1167.02 503.14 1040.8C573.867 911.392 520.896 805.652 527.451 787.924C534.029 770.136 557.345 833.141 498.269 786.685C439.052 740.117 453.955 639.868 507.065 611.512C560.619 582.918 584.046 636.747 561.115 617.404C538.159 598.037 522.424 594.812 544.225 539.549C566.241 483.739 576.617 468.631 551.338 428.582C525.96 388.384 463.663 362.455 458.732 379.465C453.821 396.421 388.021 621.691 370.689 616.726C353.368 611.769 316.991 600.1 316.641 589.298C316.298 578.484 500.139 134.282 510.719 122.177C521.328 110.036 563.038 121.788 544.958 120.652C526.891 119.51 501.31 99.2628 542.506 77.8563C583.953 56.3127 614.755 41.0793 607.583 53.2342C600.428 65.3631 543.963 54.2731 570.715 17.5502C597.661 -19.4298 638.392 28.1056 625.831 54.339C613.329 80.4587 566.783 131.345 573.682 105.729C580.61 80.0044 658.941 86.2062 637.129 95.0412C615.385 103.846 539.186 97.5398 564.716 111.978C590.24 126.416 642.861 127.99 615.676 133.079C588.568 138.157 575.465 103.694 561.394 133.522C547.395 163.194 368.412 596.971 356.241 651.16C344.181 704.869 263.455 680.03 291.881 666.937C320.423 653.791 362.101 676.021 361.064 699.181C360.034 722.256 289.759 704.271 289.573 698.961C289.393 693.649 241.177 850.376 259.82 856.997C278.475 863.624 317.142 866.502 317.142 866.502C317.142 866.502 192.457 1076.69 222.807 1098.15C253.125 1119.59 246.414 1072.99 245.895 973.634C245.371 872.747 238.374 820.969 244.189 841.675C249.985 862.334 257.297 1012.44 203.913 997.757C150.634 983.104 109.996 819.682 140.175 789.687C170.564 759.482 197.148 713.315 185.677 720.6C174.228 727.874 174.281 768.149 215.035 739.332C256.091 710.295 294.496 643.696 271.163 610.25C247.76 576.708 208.031 606.482 238.542 603.909C269.141 601.326 245.016 594.764 259.126 513.027C273.429 430.195 320.393 380.506 395.171 366.726C470.52 352.837 541.935 391.582 572.69 439.059C603.312 486.322 579.927 587.874 583.679 607.773C587.42 627.618 562.547 595.595 535.41 643.324C508.51 690.617 469.994 744.817 508.063 760.01C546.152 775.22 550.965 752.096 528.75 763.155C506.606 774.184 485.789 762.203 495.32 811.362C504.788 860.197 528.273 936.188 485.399 995.004C443.043 1053.11 422.057 1081.9 320.404 1067.46C219.34 1053.11 207.991 1056.54 209.423 1051.51C210.863 1046.47 100.359 1301.64 74.4339 1295.17C48.5306 1288.7 231.505 1069.75 233.409 1076.42C235.315 1083.08 263.489 1438.49 247.485 1398.5C231.399 1358.31 245.032 1079.68 278.579 1097.83C312.119 1115.98 454.089 1358.95 417.082 1321.43C379.97 1283.81 317.118 1117.62 331.573 1105.88C346.068 1094.1 196.43 1093.32 150.906 1025.17C105.067 956.558 65.5652 889.081 75.7732 863.273C86.0208 837.333 134.157 803.682 131.372 779.417C128.575 755.062 32.7818 736.037 -17.5914 752.724C-67.641 769.304 -73.0862 972.031 -87.7761 1045.49C-102.286 1118.04 -129.146 1238.78 -115.465 1230.66C-101.747 1222.52 -69.8364 1101.47 -59.0985 1041.95C-48.2481 981.822 7.00056 984.598 2.62757 935.792C-1.77721 886.633 -84.8366 809.268 -10.6815 787.253C64.1622 765.032 56.3028 777.49 56.5241 749.655C56.7455 721.706 64.879 581.593 45.1287 524.702C25.2334 467.416 25.6163 474.663 23.1213 427.407C20.6092 379.833 42.2687 336.597 25.9686 351.993C9.72314 367.328 -3.27305 347.507 -40.5484 380.134C-77.5413 412.515 -231.25 489.837 -239.363 515.138C-247.436 540.324 -269.121 558.699 -237.017 593.197C-205.001 627.606 -81.7845 645.68 -70.2053 645.399C-58.6165 645.118 -77.4669 634.993 -78.2841 594.303C-79.1051 553.368 -62.9748 543.972 -72.9813 544.261C-82.9814 544.541 -62.2301 556.467 -38.9737 554.033C-15.6645 551.587 1.36573 617.098 -25.0916 621.308C-51.4739 625.512 -66.8295 618.825 -48.9865 611.284C-31.0996 603.724 -27.217 584.057 10.5099 600.864C48.2462 617.684 93.9648 625.422 89.74 607.726C85.5057 589.984 20.2079 563.124 42.8678 578.61C65.5099 594.082 107.068 617.975 106.305 601.947C105.542 585.876 53.2457 551.454 63.7094 558.339C74.1731 565.23 110.009 608.993 105.541 585.876C101.061 562.693 65.9124 534.912 73.0138 541.909C80.1151 548.901 127.313 581.719 119.728 563.98C112.129 546.203 95.2756 512.399 73.4564 516.658C51.6895 520.905 -60.2446 561.773 -34.911 566.432C-9.54761 571.091 31.7477 526.891 70.8813 532.968C110.096 539.056 802.057 653.36 802.057 653.36L809.089 667.72C809.089 667.72 784.34 661.027 791.42 659.049C798.503 657.074 810.85 669.498 756.09 659.861C701.482 650.249 96.999 548.428 96.999 548.428C96.999 548.428 -79.9726 539.085 -112.166 531.064C-144.316 523.051 -227.561 518.356 -203.571 530.151C-179.578 541.94 -13.9181 522.823 21.3641 521.789C56.7461 520.76 -44.7961 453.294 -21.1199 454.352C2.59571 455.41 13.8983 476.84 1.90378 442.695C-10.1391 408.412 -27.3607 403.507 -1.27229 384.272C24.9402 364.948 41.4121 353.279 68.0144 337.506C94.7318 321.658 102.716 308.325 102.716 308.325C102.716 308.325 118.748 394.842 150.442 452.517C181.949 509.846 193.212 617.595 194.895 658.529C196.572 699.217 183.481 708.32 182.439 683.631C181.395 658.845 186.574 580.141 158.487 519.594C130.207 458.641 59.311 437.181 70.66 425.836C82.0434 414.464 101.642 395.426 101.642 395.426C101.642 395.426 57.3814 398.782 63.4645 383.86C69.5585 368.895 122.233 305.771 113.038 291.13C103.827 276.464 107.876 317.823 137.396 335.114C166.907 352.399 177.085 392.059 176.845 386.36C176.682 382.389 175.389 376.227 179.823 367.639C181.75 363.907 184.758 359.714 189.412 355.036C204.817 339.545 209.203 287.426 214.838 294.167C220.465 300.897 250.895 368.913 241.353 371.538C231.827 374.164 207.048 341.771 200.074 354.653C193.118 367.508 190.432 380.181 190.432 380.181C190.432 380.181 187.717 417.88 173.46 406.989C159.193 396.092 156.383 380.224 164.588 373.088C172.802 365.935 125.577 356.174 124.824 363.058C124.079 369.941 138.009 372.879 138.009 372.879C138.009 372.879 130.993 382.252 134.425 387.826C137.857 393.406 126.835 407.42 140.374 402.419C153.943 397.407 157.642 384.746 177.132 393.196C196.626 401.648 223.571 409.854 224.422 404.13C225.266 398.401 220.478 384.859 223.636 383.604C226.793 382.354 228.662 375.422 222.219 374.501C215.769 373.579 211.506 373.729 198.716 374.177C185.945 374.626 174.532 381.874 145.588 352.023C116.586 322.101 96.2365 296.388 101.752 277.703C107.282 258.958 108.459 261.231 109.31 233.312C110.167 205.285 92.6592 152.078 109.531 96.9326C126.55 41.2719 155.849 64.9812 157.236 72.0814C158.622 79.1752 130.906 66.1714 167.599 59.6405C204.427 53.0906 277.91 55.5782 301.395 102.38C324.764 148.955 239.009 101.663 228.475 111.67C217.96 121.657 225.103 137.944 212.349 145.611C199.626 153.261 185.327 147.987 180.159 154.117C174.999 160.241 175.469 197.85 168.665 189.925C161.861 181.995 149.788 151.915 144.033 168.657C138.294 185.356 150.522 194.219 143.455 205.058C136.407 215.872 129.474 228.994 122.266 211.786C115.048 194.548 90.1814 145.122 135.153 113.548C180.475 81.7214 248.553 62.9715 275.06 101.202C301.482 139.296 282.32 219.215 265.052 252.684C247.882 285.945 239.831 301.323 201.926 293.505C164.085 285.694 148.356 218.879 143.45 229.586C138.555 240.273 146.025 288.703 178.85 305.941C211.673 323.178 244.381 308.094 268.436 318.763C292.499 329.434 364.817 364.914 364.817 364.914C364.817 364.914 306.387 358.914 313.846 356.349C321.308 353.777 216.31 304.528 231.499 308.577C246.699 312.633 244.45 339.261 241.346 400.136C238.264 460.462 220.826 503.835 213.655 536.535C206.524 569.065 193.769 667.603 203.039 638.839C212.355 609.935 216.643 531.976 244.62 488.496C272.835 444.635 313.705 419.402 298.341 408.499C282.972 397.582 233.276 384.419 251.348 381.506C269.457 378.586 303.573 371.66 300.165 366.039C296.758 360.405 272.504 342.851 272.504 342.851C272.504 342.851 444.22 377.139 479.212 386.321C514.245 395.507 529.381 386.918 525.506 351.152C521.62 315.205 516.739 350.302 539.559 339.027C562.462 327.712 583.143 309.427 583.143 309.427C583.143 309.427 577.526 301.443 573.117 301.605C568.712 301.772 520.775 330.391 528.373 325.45C535.975 320.51 540.513 329.673 526.795 296.318C513.027 262.829 462.422 260.108 468.732 246.932C475.064 233.731 500.524 240.956 500.524 240.956C500.524 240.956 429.032 237.93 448.503 225.37C468.032 212.768 505.837 230.131 499.16 226.858C492.483 223.587 437.207 211.672 456.858 204.95C476.555 198.216 502.08 205.447 502.08 205.447C502.08 205.447 465.438 193.933 494.027 187.994C522.697 182.036 549.394 186.863 551.922 208.138C554.443 229.354 575.279 298.01 585.607 330.374C595.902 362.611 596.677 429.659 596.997 457.213C597.318 484.66 586.563 496.39 584.519 506.696C582.473 516.982 589.668 572.217 575.786 586.094C561.948 599.922 532.23 626.387 516.652 655.695C501.159 684.846 481.619 719.418 520.007 725.217C558.482 731.025 662.617 769.27 687.699 816.107C712.658 862.71 819.961 1218.27 838.837 1234.83C857.691 1251.36 796.825 1249.39 769.635 1253.55C742.522 1257.71 723.837 1270.06 717.539 1257.74C711.229 1245.4 633.388 1071.41 607.777 1025.35C582.042 979.066 604.101 886.909 593.73 904.249C583.395 921.523 569.243 964.342 568.916 940.926C568.584 917.433 574.113 859.321 561.955 896.092C549.871 932.624 521.095 966.992 552.528 968.768C584.028 970.555 596.59 966.166 622.353 1014.66C647.976 1062.92 727.829 1232.99 732.064 1247.42C736.287 1261.83 730.158 1288.52 744.713 1290.57C759.278 1292.62 819.823 1274.12 826.103 1274.12C832.389 1274.11 928.712 1317.36 966.435 1333.85C1004.18 1350.35 991.317 1362.6 959.596 1372.71C928 1382.79 757.372 1370.02 753.207 1357.85C749.03 1345.66 755.064 1272.09 757.173 1282.37C759.278 1292.62 740.634 1313.06 786.363 1306.97C832.301 1300.85 863.907 1267.9 849.209 1265.85" stroke="white" stroke-width="6.66667" stroke-miterlimit="10" stroke-linecap="round" stroke-linejoin="round"/>
</svg>
