<svg width="586" height="1309" viewBox="0 0 586 1309" fill="none" xmlns="http://www.w3.org/2000/svg">
<path opacity="0.7" d="M985.189 1300.32H525.472L513.158 1024.98L502.537 1048.2C493.784 1071.43 477.272 1095.34 447.988 1118.91C399.198 1158.18 326.167 1164.31 258.739 1149.33C258.739 1149.33 299.385 992.212 315.302 971.199C331.224 950.186 353.32 885.776 353.32 885.776L280.176 868.011C280.176 868.011 272.939 892.623 273.656 959.963C274.398 1027.3 238.184 1134.84 239.272 1148.6C239.272 1148.6 238.184 1225.73 231.669 1261.57C225.149 1297.42 219.351 1304.64 217.181 1299.59C215.006 1294.51 255.194 1150.05 255.194 1150.05M255.194 1150.05L238.901 1144.3C226.69 1140.76 214.66 1136.73 203.146 1132.05L183.25 1128.69V1298.95L200.888 1298.4C200.888 1298.4 202.8 1137.92 201.43 1136.58C200.084 1135.22 183.377 1123.03 183.377 1123.03C176.598 1119.54 170.108 1115.77 163.978 1111.65C121.596 1083.09 80.3254 1011.92 80.3254 1011.92C80.3254 1011.92 71.6353 1193.15 72.3765 1204.01C73.0933 1214.87 85.4068 1197.48 115.451 1211.96C145.491 1226.45 153.834 1224.99 158.896 1225.72C163.958 1226.45 156.721 1272.42 155.268 1286.18C153.835 1299.94 136.459 1296.34 117.255 1297.04C98.071 1297.76 15.16 1302.46 7.5526 1294.89C-0.049945 1287.29 2.49066 1269.17 16.2425 1258.67C30.0139 1248.16 50.9979 1245.64 64.4035 1231.15C77.8092 1216.67 75.9804 1215.22 86.8454 1219.57C97.7055 1223.9 113.281 1226.45 117.997 1236.61C122.688 1246.71 136.459 1243.11 143.691 1240.21C150.923 1237.31 152.381 1228.25 159.613 1210.52C166.87 1192.78 175.56 1113.86 170.127 1107.68C164.695 1101.55 109.541 1079.9 84.9727 1019.21C60.3802 958.398 86.2114 902.873 114.534 872.37C150.377 833.826 139.517 790.371 147.119 783.842C154.722 777.341 220.804 791.273 231.294 736.968C241.807 682.663 199.796 648.99 199.796 648.99C199.796 648.99 225.866 595.031 239.637 546.154C253.389 497.276 291.402 462.184 332.677 455.274C373.947 448.393 389.528 445.872 385.183 454.577C380.838 463.257 323.075 575.671 301.355 595.933C279.635 616.22 231.494 630.996 219.717 610.968C207.008 589.316 214.66 514.778 203.424 522.99C191.174 531.987 135.713 570.039 127.028 568.62C118.338 567.167 112.906 551.957 104.957 542.179C96.9836 532.397 65.1154 536.376 59.683 542.906C54.2505 549.406 97.6957 557.94 109.643 577.476C121.591 597.04 97.5884 658.08 105.303 677.411C109.302 687.369 95.5257 696.976 72.0012 701.677C48.4767 706.378 41.4154 721.939 49.5642 731.165C57.708 740.396 63.4865 752.178 63.4865 752.178L24.3815 768.285C24.3815 768.285 15.6964 751.1 16.779 749.623C17.8665 748.17 39.9572 738.768 46.3016 736.066C52.6216 733.335 58.9661 735.135 59.5074 735.135C60.0486 735.135 67.656 747.092 69.826 753.797C71.9961 760.502 78.6917 762.302 84.4899 757.947C90.2882 753.592 78.6917 729.707 80.1449 729.151C81.603 728.629 85.4019 742.737 91.7219 749.789C98.0663 756.869 104.211 747.989 106.386 744.912C108.556 741.835 99.5195 717.745 97.6957 719.744C95.8913 721.748 101.563 731.643 104.757 738.582C109.253 748.335 118.875 739.163 122.678 738.899C126.482 738.636 132.734 740.669 128.803 747.462C124.848 754.255 100.695 755.182 102.733 751.003C104.757 746.765 118.333 742.703 119.962 739.304C122.785 733.472 112.906 709.06 111.467 711.235C110.014 713.41 117.07 727.342 120.157 731.697C123.22 736.051 128.413 739.504 133.363 735.876C136.796 733.321 136.079 720.666 135.708 717.413C135.362 714.131 588.555 577.914 587.828 570.687C587.102 563.431 135.708 702.901 135.708 702.901L601.965 558.179C601.965 558.179 607.105 564.592 610.729 571.848C614.357 579.075 136.25 723.538 133.538 721.358C130.822 719.213 130.281 715.146 127.389 704.173C124.522 693.318 116.704 688.788 110.184 694.045C103.664 699.267 79.7695 701.564 72.3669 705.802C42.0152 723.187 44.473 733.696 34.6955 713.405C24.918 693.143 2.11041 564.967 24.5767 542.53C47.0186 520.064 134.538 441.927 162.866 411.102C187.502 384.281 204.141 380.307 230.577 379.956C257.018 379.61 302.984 355.69 302.984 355.69C302.984 355.69 304.071 424.308 347.258 421.577C390.421 418.88 402.11 391.187 402.368 400.681C402.651 410.2 367.608 447.672 324.987 430.023C282.346 412.346 305.983 382.482 306.524 365.643C307.022 350.175 321.993 334.497 311.259 321.032C300.526 307.563 289.559 253.663 285.321 257.642C281.064 261.646 295.293 316.273 313.932 329.42C326.835 338.534 364.653 329.362 392.59 309.709C420.548 290.086 412.901 288.086 424.195 278.45C435.514 268.785 437.162 278.104 442.834 261.821C448.481 245.509 450.48 232.216 439.513 227.89C428.516 223.565 421.547 255.496 418.222 257.818C414.876 260.139 420.548 242.174 412.901 229.548C405.231 216.894 397.911 210.915 394.585 201.279C391.264 191.643 324.075 197.968 313.083 185.313C302.116 172.658 287.472 187.317 290.144 204.615C292.792 221.887 275.826 238.546 282.151 244.524C288.471 250.503 286.472 221.882 281.824 192.628C277.172 163.339 289.793 137.421 308.109 136.06C326.401 134.753 322.748 136.757 333.048 132.081C343.366 127.409 376.625 116.466 410.902 137.421C445.16 158.346 453.806 201.942 450.48 223.887C447.159 245.86 434.621 288.876 418.787 294.041C406.162 298.132 397.131 327.099 398.213 339.758C399.301 352.442 401.822 380.682 403.992 384.662C406.162 388.636 418.851 358.972 418.114 357.87C417.398 356.797 405.445 350.267 405.445 350.267C405.445 350.267 419.197 359.323 414.506 374.879C414.506 374.879 308.407 731.867 318.555 743.825C328.698 755.753 385.178 769.544 389.153 764.462C393.127 759.381 495.227 276.046 495.227 276.046C495.227 276.046 475.64 260.413 466.368 253.84M255.194 1150.05L315.302 774.03M503.566 1302.18L492.335 1080.89C492.335 1080.89 509.233 1039.73 510.559 1013.05C512.344 977.094 503.737 944.817 501.196 920.668C496.31 873.965 517.664 870.917 503.195 860.033C465.358 831.617 464.271 790.864 479.476 774.03C494.681 757.196 565.103 734.759 600.57 775.308C617.814 795.019 632.444 1157.63 638.247 1196.01C644.021 1234.41 625.563 1204.72 586.463 1211.94C547.358 1219.2 553.156 1225.35 551.703 1233.65C550.269 1242.01 573.803 1262.65 587.911 1258.3C602.043 1253.94 603.843 1234.76 631.361 1239.08C658.88 1243.44 676.264 1262.27 694.727 1269.15C713.19 1276.03 708.108 1298.82 701.608 1303.55C695.073 1308.25 630.986 1302.09 613.601 1302.09H554.965C548.104 1302.09 544.476 1268.42 550.991 1249.62C557.511 1230.78 552.449 1218.82 545.192 1201.81C537.956 1184.77 517.323 1121.44 517.323 1049.02C517.323 976.597 512.066 874.516 507.721 853.879C503.381 833.241 451.07 838.669 469.903 784.363C484.304 742.771 525.296 728.922 525.296 727.503C525.296 726.084 560.402 641.358 540.501 559.91C520.58 478.438 411.594 458.146 402.909 451.617C394.219 445.116 419.943 362.566 419.943 362.566C419.943 362.566 446.725 263.557 459.936 261.207C473.166 258.827 486.547 281.464 499.948 299.229C499.948 299.229 551.995 386.13 568.39 420.119C585.658 455.937 605.949 491.346 615.439 476.98C617.297 474.195 582.874 458.868 568.737 438.231C554.624 417.593 554.624 410.712 539.765 396.955C524.925 383.199 527.817 383.574 507.55 387.9C487.283 392.254 481.115 385.379 475.336 389.382C469.538 393.332 454.328 464.33 470.991 472.63C487.63 480.959 524.56 538.892 535.42 527.486C546.28 516.08 602.404 509.199 616.541 496.515C630.649 483.86 677.006 485.284 677.352 455.967C677.698 426.654 668.847 412.517 642.231 364.741C615.615 316.936 537.595 236.941 537.595 236.941C544.656 262.455 526.471 289.623 524.301 291.246C522.131 292.87 505.01 296.674 500.123 291.246C495.237 285.819 497.412 283.932 501.752 280.391C506.097 276.88 511.812 280.128 517.498 273.598C523.214 267.098 520.215 256.243 518.327 253.224C516.416 250.264 519.132 244.836 524.301 238.307C529.451 231.806 525.106 230.704 524.565 227.451C524.023 224.199 528.105 221.731 532.167 215.231C536.249 208.701 526.735 207.365 526.193 203.01C525.652 198.655 529.997 194.588 524.848 186.986C519.678 179.383 476.774 164.695 476.774 164.695C476.774 164.695 494.979 107.976 495.237 100.373C495.52 92.7659 482.485 81.3597 481.661 75.9321C480.856 70.5045 492.804 18.6082 503.664 7.753C514.524 -3.10709 553.083 10.2157 562.314 18.3449C571.55 26.5033 555.799 73.4645 550.366 87.0506C544.934 100.637 532.704 103.075 532.704 103.075C532.704 103.075 517.494 176.482 514.782 178.281C512.066 180.081 498.86 175.204 485.825 173.229C472.79 171.225 460.302 165.417 459.585 176.652C458.843 187.888 492.711 189.687 494.145 191.487C495.598 193.311 478.052 199.465 468.621 202.718C459.214 205.97 457.761 211.252 458.843 216.304C459.931 221.356 494.886 217.206 495.773 213.953C496.69 210.705 491.433 213.231 476.053 217.206C460.672 221.185 453.24 228.788 457.585 234.942C461.925 241.125 468.616 243.1 473.332 240.023C478.047 236.946 473.332 232.421 485.996 235.322C498.68 238.199 500.114 247.426 495.769 248.908C491.428 250.357 462.296 240.574 460.297 247.426C459.333 250.758 457.734 247.719 466.368 253.84M315.302 774.03C310.625 739.393 264.516 872.063 315.302 774.03ZM315.302 774.03C343.635 719.339 449.082 452.634 466.368 253.84" stroke="white" stroke-width="6.66667" stroke-linecap="round" stroke-linejoin="round"/>
</svg>
