<svg width="1920" height="487" viewBox="0 0 1920 487" fill="none" xmlns="http://www.w3.org/2000/svg">
<path d="M946.27 346.451C951.026 354.198 956.342 361.35 962.396 366.983C972.318 371.633 984.92 374.435 1001.63 368.548C1006.41 366.866 1011.17 367.266 1013.92 368.731C1015.43 369.535 1016.5 370.695 1016.95 372.116H1016.96C1017.45 373.681 1017.19 375.345 1015.95 376.966C1014.14 379.352 1009.54 381.91 1000.88 383.752C987.167 386.677 975.636 383.564 965.786 376.871C963.55 375.351 961.403 373.642 959.344 371.783C954.849 369.591 950.876 367.077 947.302 364.813C946.226 364.136 945.133 363.437 944.428 363.01C913.364 343.854 862.312 349.592 825.549 362.727C823.712 363.381 821.908 364.058 820.149 364.747C820.066 366.561 819.977 368.304 819.883 369.963C819.361 379.258 818.723 386.039 816.032 392.076C813.302 398.197 808.59 403.252 799.995 408.857C792.892 413.496 784.574 417.303 776.955 418.962C772.371 419.955 767.982 420.188 764.175 419.378C760.069 418.507 756.639 416.453 754.331 412.913C753.254 411.259 752.439 409.312 751.95 407.042C750.047 398.286 753.371 389.302 759.37 381.477C766.134 372.654 776.383 365.235 786.216 361.389C795.195 357.882 801.687 357.893 805.982 360.135C807.453 360.901 808.657 361.905 809.611 363.098C811.26 362.344 812.958 361.606 814.694 360.884C816.653 313.844 816.071 225.08 815.882 202.39C791.799 219.17 764.441 232.361 735.775 240.496C708.068 248.359 679.123 251.505 650.717 248.636C651.328 258.702 653.109 272.581 655.151 288.535C663.785 355.979 677.092 459.914 628.216 477.844C600.747 488.515 582.64 487.643 572.53 481.234C567.969 478.343 565 474.37 563.485 469.803C524.469 470.003 504.331 452.19 474.427 425.726C467.557 419.65 460.165 413.102 451.953 406.265C442.236 398.18 430.755 390.944 416.038 385.883C408.725 383.37 400.606 381.388 391.5 380.107C389.447 383.064 387.205 385.944 384.775 388.747C375.313 399.634 364.171 407.997 351.913 414.212C349.116 415.632 346.258 416.936 343.356 418.135C345.082 438.755 342.973 458.128 324.039 472.877C302.869 489.375 274.691 490.779 242.372 480.463L242.25 480.43C207.768 469.398 168.441 444.959 127.888 411.321C28.059 356.107 -93.7114 458.055 -94.061 458.344C-95.2541 459.332 -97.0298 459.165 -98.0175 457.972C-99.0053 456.779 -98.8388 455.003 -97.6457 454.016C-97.285 453.716 27.554 349.181 130.818 406.521C131.012 406.626 131.184 406.754 131.34 406.892C171.404 440.143 210.143 464.265 243.971 475.086L244.071 475.119C274.613 484.863 301.033 483.692 320.588 468.455C336.83 455.797 339.161 438.683 337.868 420.249C328.562 423.601 318.79 425.926 308.757 427.369C274.019 432.363 243.96 423.64 221.291 406.637C209.366 397.697 199.505 386.477 192.097 373.781C184.689 361.084 179.717 346.884 177.575 331.973C173.252 301.914 180.45 268.979 202.374 239.669C202.441 239.569 202.513 239.475 202.591 239.38C236.895 199.421 261.65 178.223 282.781 160.133C288.009 155.655 293.014 151.371 297.886 147.037C292.603 104.076 289.918 66.3358 292.947 41.8086C295.35 22.3866 306.759 8.94103 319.966 3.17547C325.288 0.850379 330.909 -0.226154 336.369 0.0402044C341.896 0.312112 347.257 1.96021 351.968 5.08993C362.123 11.8432 369.231 25.4164 368.421 46.8417C368.144 54.2054 366.679 62.1074 363.782 70.3201C361.124 77.8447 357.251 85.6635 351.963 93.5988H351.968C334.993 119.064 320.066 134.64 303.813 149.273C306.776 172.963 310.505 198.206 314.478 223.654C329.128 223.615 343.644 226.445 356.657 232.583L356.668 232.594C363.405 235.818 369.62 239.963 375.23 244.841C391.134 258.664 402.304 278.43 406.943 300.038C411.571 321.63 409.696 345.097 399.519 366.345C398.126 369.247 396.583 372.105 394.885 374.913C403.331 376.244 410.95 378.164 417.881 380.545C433.302 385.844 445.349 393.441 455.554 401.937C463.894 408.884 471.291 415.432 478.161 421.509C506.639 446.707 525.934 463.788 562.38 464.098C561.925 457.989 563.673 451.302 567.358 445.026C575.399 431.325 592.845 419.372 616.856 419.827C625.441 419.988 633.953 422.907 639.68 427.735C641.95 429.66 643.809 431.875 645.085 434.349C646.4 436.891 647.105 439.693 647.049 442.701C646.961 447.418 644.985 452.556 640.49 457.889C635.28 464.071 627.156 469.148 617.85 472.522C608.61 475.874 598.134 477.572 588.156 477.028L588.045 477.017C584.705 476.717 582.252 475.729 580.554 474.242C578.922 472.811 578.023 471.024 577.729 468.987C574.883 469.276 572.136 469.487 569.472 469.62C570.715 472.322 572.724 474.67 575.554 476.467C584.316 482.022 600.681 482.516 626.246 472.566L626.29 472.55C670.966 456.158 658.003 354.913 649.591 289.217C647.299 271.316 645.34 256.006 644.952 245.568C644.896 244.019 646.111 242.721 647.66 242.665C647.804 242.665 647.943 242.665 648.076 242.682C676.793 246.056 706.164 243.043 734.265 235.069C764.036 226.617 792.376 212.589 816.992 194.688C818.246 193.777 820.005 194.055 820.921 195.315C821.32 195.864 821.487 196.502 821.448 197.129C821.492 201.874 822.48 304.777 820.405 358.609C821.476 358.204 822.558 357.81 823.651 357.416C861.651 343.843 914.662 338.061 947.369 358.232L947.386 358.243C945.316 355.402 943.351 352.427 941.47 349.37M1136.96 402.159C1130.25 407.414 1122.23 411.559 1113.84 414.694C1121.92 416.77 1130.26 419.017 1138.5 421.265L1140.42 421.792C1170.48 429.999 1221.49 443.922 1272.28 435.92C1311.02 429.816 1332.92 409.856 1356.77 388.114C1369.39 376.611 1382.56 364.619 1399.02 353.815C1407.57 348.21 1416.11 343.044 1424.39 338.244C1394.44 317.856 1422.29 277.531 1443.66 265.739C1458.46 257.582 1475.91 254.69 1490.61 257.21C1491.44 257.354 1492.34 257.532 1493.3 257.748C1497.74 258.73 1501.92 260.312 1505.57 262.398C1510.44 265.184 1514.42 268.902 1516.91 273.38V273.391C1519.45 277.98 1520.39 283.307 1519.09 289.173C1518.47 291.981 1517.34 294.888 1515.64 297.857C1510.42 306.974 1500.23 314.61 1487.93 319.765H1487.92C1478.16 323.855 1467.02 326.419 1455.96 326.951L1450.37 330.053C1445.95 332.501 1441.36 335.048 1436.64 337.706C1440.75 338.854 1445.33 339.376 1450.15 339.326C1457.42 339.243 1465.27 337.839 1473.04 335.27C1496.46 327.528 1518.8 309.283 1521.7 284.922C1529.81 216.917 1518.64 39.3337 1518.61 38.8176C1518.52 37.2694 1519.7 35.9376 1521.25 35.8488C1522.5 35.7767 1523.62 36.5425 1524.04 37.6578C1538.98 71.9571 1558.48 83.2607 1573.76 92.1116C1597.56 105.901 1611.88 114.208 1588.87 182.413C1581.16 205.225 1587.17 217.833 1604.1 223.754C1622.29 230.108 1652.53 229.425 1691.73 225.43C1741.17 220.391 1762.59 258.308 1786.29 300.266C1817.6 355.679 1853.03 418.401 1965.22 392.459C1966.73 392.115 1968.24 393.058 1968.59 394.573C1968.93 396.083 1967.99 397.592 1966.47 397.942C1850.22 424.822 1813.68 360.152 1781.41 303.018C1758.66 262.742 1738.1 226.345 1692.27 231.018C1652.34 235.085 1621.35 235.729 1602.26 229.059C1581.92 221.95 1574.59 207.168 1583.55 180.637C1605.1 116.766 1592.27 109.331 1570.95 96.9782C1556.99 88.8875 1539.65 78.838 1525.04 52.413C1527.47 95.7074 1534.09 228.598 1527.29 285.588C1524.1 312.374 1500.02 332.284 1474.8 340.619C1466.54 343.349 1458.1 344.847 1450.2 344.942C1442.87 345.025 1436.02 343.887 1430.17 341.396C1421.08 346.612 1411.62 352.278 1402.09 358.526C1385.97 369.103 1372.99 380.933 1360.55 392.27C1336.06 414.595 1313.57 435.087 1273.14 441.458C1221.16 449.648 1169.43 435.52 1138.95 427.197L1137.02 426.669C1125.82 423.612 1114.43 420.554 1103.76 417.946C1092.63 421.009 1081.49 422.424 1072.36 422.424C1067.22 422.424 1062.66 421.975 1059.05 421.12H1059.04C1055.03 420.171 1052.02 418.645 1050.41 416.576C1049.47 415.383 1048.98 414.051 1048.98 412.586C1048.98 404.401 1061.38 403.785 1079.62 406.97C1086.79 408.219 1094.98 410.028 1103.69 412.147C1114.46 409.045 1125.09 404.318 1133.5 397.731M337.352 414.445C336.874 409.856 336.247 405.205 335.615 400.539C335.115 396.837 334.605 393.108 334.227 389.906C333.767 386.028 333.267 382.032 332.735 377.926C331.78 377.854 330.831 377.776 329.899 377.693C322.669 380.811 314.95 383.164 307.059 384.546C292.187 387.148 276.644 386.338 262.499 380.806C258.054 379.069 253.859 376.838 249.953 374.191C235.486 364.403 224.765 348.87 219.282 331.674C213.805 314.477 213.55 295.56 220.026 279.001C221.719 274.667 223.888 270.478 226.552 266.505L226.68 266.299C239.52 247.332 261.345 233.659 285.406 227.427C293.047 225.446 300.922 224.22 308.812 223.804C305.083 199.915 301.582 176.209 298.718 153.774C294.734 157.27 290.65 160.766 286.422 164.384C265.446 182.341 240.874 203.377 206.875 242.987C185.893 271.016 179.001 302.48 183.13 331.169C185.166 345.336 189.9 358.842 196.953 370.928C204.006 383.014 213.362 393.669 224.654 402.131C246.185 418.279 274.807 426.553 307.963 421.786C318.129 420.327 328.007 417.93 337.357 414.434L337.352 414.445ZM341.175 399.795C341.741 403.973 342.307 408.141 342.768 412.275C345.004 411.315 347.207 410.288 349.377 409.19C361.008 403.291 371.568 395.367 380.524 385.062C382.15 383.186 383.687 381.277 385.135 379.33C377.544 378.569 369.309 378.27 360.336 378.508C352.517 378.719 345.231 378.636 338.456 378.292C338.944 382.043 339.394 385.7 339.815 389.246C340.27 393.092 340.726 396.443 341.181 399.795H341.175ZM331.764 370.656C328.001 343.005 322.818 311.009 317.43 277.714L315.91 268.319C311.703 268.358 307.331 268.863 302.819 269.878C292.52 272.209 282.387 277.409 274.385 284.373C266.905 290.882 261.339 298.9 259.336 307.474C258.41 311.458 257.888 315.803 258.01 320.281C258.26 329.415 261.167 339.215 268.692 347.811C276.344 356.556 288.797 364.114 308.091 368.62C314.328 370.074 321.265 371.206 328.972 371.96C329.916 371.539 330.848 371.1 331.769 370.651L331.764 370.656ZM322.968 276.837C328.245 309.422 333.323 340.763 337.052 367.865C340.731 365.773 344.205 363.465 347.412 360.973C361.063 350.38 367.7 337.112 368.854 323.966C369.648 314.926 367.861 305.931 363.988 297.896C360.103 289.839 354.127 282.736 346.563 277.52C339.516 272.659 331.064 269.423 321.62 268.552L322.963 276.831L322.968 276.837ZM315 262.72C313.213 251.661 311.426 240.512 309.678 229.392C301.976 229.758 294.274 230.94 286.805 232.877C264.014 238.781 243.394 251.649 231.335 269.457L231.202 269.634C228.794 273.225 226.813 277.059 225.248 281.06C219.255 296.392 219.51 313.966 224.615 329.992C229.72 346.018 239.676 360.463 253.082 369.541C256.667 371.966 260.496 374.008 264.53 375.584C277.654 380.711 292.154 381.455 306.077 379.013C310.011 378.325 313.895 377.382 317.691 376.217C313.851 375.617 310.222 374.913 306.798 374.114C286.238 369.314 272.826 361.09 264.453 351.523C255.951 341.806 252.666 330.747 252.389 320.426C252.256 315.415 252.822 310.592 253.848 306.209C256.134 296.42 262.355 287.386 270.679 280.139C279.346 272.592 290.361 266.948 301.576 264.413C306.182 263.369 310.666 262.825 314.989 262.726L315 262.72ZM298.513 42.4967C295.628 65.8198 298.042 101.545 302.958 142.442C317.796 128.814 331.664 113.892 347.262 90.4912H347.268C352.268 82.9888 355.936 75.5862 358.455 68.4611C361.163 60.7811 362.534 53.4452 362.789 46.653C363.516 27.4641 357.478 15.5279 348.838 9.7845C344.987 7.22634 340.603 5.8779 336.075 5.65594C331.475 5.42842 326.714 6.34958 322.186 8.33062C310.638 13.3748 300.638 25.2555 298.508 42.5023L298.513 42.4967ZM315.338 229.275C317.103 240.485 318.906 251.716 320.704 262.853C331.719 263.602 341.575 267.27 349.754 272.914C358.139 278.696 364.753 286.554 369.048 295.466C373.354 304.4 375.341 314.41 374.464 324.46C373.182 339.071 365.869 353.765 350.847 365.424C347.44 368.071 343.75 370.523 339.843 372.743C346.169 373.037 352.945 373.104 360.203 372.904C370.635 372.621 380.113 373.054 388.77 374.08C390.901 370.773 392.788 367.382 394.436 363.931C404.041 343.871 405.811 321.669 401.422 301.209C397.038 280.771 386.512 262.099 371.534 249.091C366.279 244.53 360.492 240.657 354.238 237.666C342.252 232.011 328.878 229.342 315.338 229.27V229.275ZM567.985 464.026C571.259 463.904 574.672 463.66 578.234 463.288C578.762 461.457 579.588 459.548 580.648 457.634C584.666 450.392 592.257 442.657 598.727 439C609.315 433.012 616.929 431.858 621.512 433.417C624.681 434.494 626.578 436.73 627.211 439.627C627.772 442.174 627.261 445.198 625.696 448.267C622.189 455.148 612.983 462.861 598.516 465.78C593.162 466.862 588.101 467.711 583.301 468.349C583.439 469.032 583.739 469.609 584.233 470.036C585.049 470.752 586.408 471.24 588.428 471.44C597.656 471.945 607.356 470.369 615.919 467.261C624.331 464.209 631.606 459.698 636.179 454.276C639.774 450.009 641.35 446.086 641.417 442.629C641.456 440.592 640.967 438.683 640.068 436.941C639.131 435.132 637.749 433.484 636.045 432.047H636.04C631.273 428.023 624.076 425.593 616.757 425.454C595.026 425.038 579.35 435.681 572.186 447.878C569.012 453.283 567.541 458.96 568.002 464.026H567.985ZM584.477 462.511C588.589 461.929 592.895 461.191 597.418 460.275C609.975 457.739 617.8 451.358 620.68 445.714C621.645 443.822 621.995 442.107 621.712 440.814C621.507 439.871 620.841 439.122 619.709 438.739C616.468 437.64 610.486 438.789 601.48 443.883C595.814 447.085 589.127 453.927 585.559 460.358C585.154 461.091 584.793 461.807 584.483 462.511H584.477ZM814.256 369.663L814.395 367.122C813.579 367.477 812.78 367.832 811.986 368.193C812.597 370.817 812.552 373.819 811.937 376.977C810.066 386.51 802.714 397.986 792.026 404.7C783.98 409.756 776.367 411.809 770.973 411.248C768.331 410.971 766.117 410.089 764.508 408.635C764.441 408.574 764.375 408.507 764.314 408.441C762.699 406.887 761.772 404.811 761.7 402.264C761.595 398.452 763.531 393.491 768.198 387.615C775.911 377.904 783.741 372.038 789.596 369.674C791.982 368.709 794.14 368.292 795.933 368.387C796.804 368.437 797.603 368.598 798.313 368.875C800.195 367.788 802.176 366.717 804.251 365.668C803.979 365.457 803.691 365.268 803.374 365.102C800.455 363.581 795.555 363.77 788.247 366.622C779.291 370.124 769.963 376.871 763.82 384.884C758.759 391.482 755.918 398.885 757.433 405.855C757.777 407.453 758.321 408.779 759.025 409.856C760.44 412.025 762.643 413.307 765.324 413.879C768.309 414.511 771.899 414.3 775.751 413.463C782.704 411.953 790.356 408.441 796.921 404.151C804.517 399.196 808.618 394.873 810.888 389.79C813.196 384.613 813.768 378.331 814.256 369.663ZM806.415 375.895C806.781 374.025 806.892 372.271 806.715 370.723C805.078 371.55 803.507 372.393 801.998 373.242C802.17 374.03 802.214 374.902 802.126 375.85V375.884C801.21 384.446 796.554 392.237 791.81 396.715C790.056 398.369 788.231 399.623 786.521 400.35C784.385 401.26 782.337 401.393 780.589 400.6L780.412 400.511C779.052 399.834 778.004 398.657 777.388 396.932C776.028 393.13 776.772 389.124 779.258 385.09C780.218 383.53 781.455 381.966 782.942 380.395C779.668 383.092 776.145 386.649 772.593 391.122C768.814 395.883 767.233 399.562 767.305 402.115C767.333 403.075 767.632 403.829 768.154 404.362L768.265 404.456C768.981 405.105 770.107 405.516 771.539 405.666C775.806 406.11 782.099 404.312 789.03 399.956C798.38 394.079 804.795 384.135 806.41 375.9L806.415 375.895ZM787.959 392.62C791.643 389.141 795.267 383.247 796.349 376.677C790.567 380.49 786.294 384.363 784.03 388.031C782.465 390.572 781.943 392.947 782.687 395.034C782.776 395.284 782.842 395.417 782.892 395.461L782.92 395.472C783.159 395.578 783.653 395.472 784.318 395.189H784.33C785.412 394.729 786.666 393.846 787.953 392.625L787.959 392.62ZM1003.48 373.853C994.387 377.055 986.429 377.954 979.404 377.432C985.497 379.402 992.228 379.846 999.703 378.253C1006.6 376.783 1010.1 375.14 1011.34 373.72L1011.27 373.681C1009.7 372.848 1006.73 372.71 1003.49 373.853H1003.48ZM1011.59 373.808L1011.57 373.792C1011.59 373.853 1011.6 373.88 1011.58 373.808H1011.59ZM1072.35 416.798C1078.02 416.798 1084.5 416.232 1091.24 415.033C1086.8 414.056 1082.57 413.202 1078.64 412.519C1064.33 410.022 1054.6 409.406 1054.6 412.591C1054.6 412.769 1054.68 412.946 1054.82 413.13C1055.6 414.134 1057.54 414.989 1060.33 415.649C1063.52 416.404 1067.63 416.798 1072.35 416.798ZM1429.94 335.053C1435.07 332.134 1440.07 329.349 1444.88 326.679C1435.85 325.325 1432.5 320.892 1433.05 314.91C1433.78 306.791 1443.48 295.704 1455.26 286.887C1466.94 278.147 1480.87 271.432 1490.25 271.954C1497.93 272.381 1502.85 276.887 1502.27 287.491C1501.66 298.568 1488.35 308.334 1468.71 319.743C1474.64 318.567 1480.41 316.819 1485.75 314.582C1496.97 309.871 1506.17 303.062 1510.75 295.066C1512.18 292.569 1513.12 290.194 1513.61 287.963C1514.59 283.529 1513.89 279.528 1512 276.105C1510.04 272.575 1506.79 269.579 1502.78 267.281C1499.59 265.456 1495.94 264.08 1492.09 263.225C1491.37 263.064 1490.55 262.903 1489.65 262.753C1476.15 260.439 1460.04 263.125 1446.36 270.672C1432.77 278.169 1421.6 290.471 1417.83 307.429C1417.66 308.195 1417.49 309.044 1417.33 309.977C1416.69 322.495 1421.78 330.636 1429.94 335.053ZM1454.4 321.402C1478.67 307.89 1496.09 297.413 1496.66 287.186C1497.02 280.588 1494.26 277.803 1489.94 277.564C1481.92 277.12 1469.38 283.324 1458.62 291.376C1447.96 299.355 1439.22 308.956 1438.63 315.415C1438.35 318.456 1440.82 320.72 1447.35 321.336C1449.68 321.463 1452.04 321.48 1454.39 321.402H1454.4ZM1524.04 37.6634C1524.14 37.9242 1524.2 38.2072 1524.21 38.4958L1524.04 37.6634Z" fill="white"/>
</svg>
