<svg width="38" height="40" viewBox="0 0 38 40" fill="none" xmlns="http://www.w3.org/2000/svg">
<g filter="url(#filter0_d_2024_456)">
<path d="M31.9602 25.3436C31.9602 25.8236 31.8535 26.317 31.6268 26.797C31.4002 27.277 31.1068 27.7303 30.7202 28.157C30.0668 28.877 29.3468 29.397 28.5335 29.7303C27.7335 30.0637 26.8668 30.237 25.9335 30.237C24.5735 30.237 23.1202 29.917 21.5868 29.2636C20.0535 28.6103 18.5202 27.7303 17.0002 26.6236C15.4668 25.5036 14.0135 24.2636 12.6268 22.8903C11.2535 21.5036 10.0135 20.0503 8.90683 18.5303C7.8135 17.0103 6.9335 15.4903 6.2935 13.9836C5.6535 12.4636 5.3335 11.0103 5.3335 9.62365C5.3335 8.71698 5.4935 7.85031 5.8135 7.05031C6.1335 6.23698 6.64016 5.49031 7.34683 4.82365C8.20016 3.98365 9.1335 3.57031 10.1202 3.57031C10.4935 3.57031 10.8668 3.65031 11.2002 3.81031C11.5468 3.97031 11.8535 4.21031 12.0935 4.55698L15.1868 8.91698C15.4268 9.25031 15.6002 9.55698 15.7202 9.85031C15.8402 10.1303 15.9068 10.4103 15.9068 10.6636C15.9068 10.9836 15.8135 11.3036 15.6268 11.6103C15.4535 11.917 15.2002 12.237 14.8802 12.557L13.8668 13.6103C13.7202 13.757 13.6535 13.9303 13.6535 14.1436C13.6535 14.2503 13.6668 14.3436 13.6935 14.4503C13.7335 14.557 13.7735 14.637 13.8002 14.717C14.0402 15.157 14.4535 15.7303 15.0402 16.4236C15.6402 17.117 16.2802 17.8236 16.9735 18.5303C17.6935 19.237 18.3868 19.8903 19.0935 20.4903C19.7868 21.077 20.3602 21.477 20.8135 21.717C20.8802 21.7436 20.9602 21.7836 21.0535 21.8236C21.1602 21.8636 21.2668 21.877 21.3868 21.877C21.6135 21.877 21.7868 21.797 21.9335 21.6503L22.9468 20.6503C23.2802 20.317 23.6002 20.0636 23.9068 19.9036C24.2135 19.717 24.5202 19.6236 24.8535 19.6236C25.1068 19.6236 25.3735 19.677 25.6668 19.797C25.9602 19.917 26.2668 20.0903 26.6002 20.317L31.0135 23.4503C31.3602 23.6903 31.6002 23.9703 31.7468 24.3036C31.8802 24.637 31.9602 24.9703 31.9602 25.3436Z" stroke="#7D7D7D" stroke-width="2.4" stroke-miterlimit="10"/>
</g>
<defs>
<filter id="filter0_d_2024_456" x="0.133545" y="2.37012" width="37.0266" height="37.0669" filterUnits="userSpaceOnUse" color-interpolation-filters="sRGB">
<feFlood flood-opacity="0" result="BackgroundImageFix"/>
<feColorMatrix in="SourceAlpha" type="matrix" values="0 0 0 0 0 0 0 0 0 0 0 0 0 0 0 0 0 0 127 0" result="hardAlpha"/>
<feOffset dy="4"/>
<feGaussianBlur stdDeviation="2"/>
<feComposite in2="hardAlpha" operator="out"/>
<feColorMatrix type="matrix" values="0 0 0 0 0 0 0 0 0 0 0 0 0 0 0 0 0 0 0.25 0"/>
<feBlend mode="normal" in2="BackgroundImageFix" result="effect1_dropShadow_2024_456"/>
<feBlend mode="normal" in="SourceGraphic" in2="effect1_dropShadow_2024_456" result="shape"/>
</filter>
</defs>
</svg>
