<svg width="44" height="43" viewBox="0 0 44 43" fill="none" xmlns="http://www.w3.org/2000/svg">
<path fill-rule="evenodd" clip-rule="evenodd" d="M15.8397 21.5702C15.8397 24.9775 18.5895 27.7273 21.9968 27.7273C25.4041 27.7273 28.154 24.9775 28.154 21.5702C28.154 18.1628 25.4041 15.413 21.9968 15.413C18.5895 15.413 15.8397 18.1628 15.8397 21.5702ZM17.9951 21.5702C17.9951 19.3667 19.7933 17.5684 21.9968 17.5684C24.2003 17.5684 25.9985 19.3667 25.9985 21.5702C25.9985 23.7736 24.2003 25.5719 21.9968 25.5719C19.7933 25.5719 17.9951 23.7736 17.9951 21.5702Z" fill="#171717"/>
<path d="M26.9682 15.1608C26.9682 15.9564 27.6106 16.5988 28.4062 16.5988C28.5951 16.599 28.7822 16.562 28.9567 16.4898C29.1313 16.4176 29.2899 16.3117 29.4235 16.1781C29.5571 16.0446 29.663 15.886 29.7352 15.7114C29.8073 15.5368 29.8444 15.3497 29.8441 15.1608C29.8441 14.3653 29.2017 13.7228 28.4062 13.7228C27.6106 13.7228 26.9682 14.3653 26.9682 15.1608Z" fill="#171717"/>
<path fill-rule="evenodd" clip-rule="evenodd" d="M21.9998 0.236816C10.2178 0.236816 0.666504 9.78808 0.666504 21.5702C0.666504 33.3522 10.2178 42.9035 21.9998 42.9035C33.7819 42.9035 43.3332 33.3522 43.3332 21.5702C43.3332 9.78808 33.7819 0.236816 21.9998 0.236816ZM33.9994 20.9639C33.9992 21.1658 33.9989 21.3679 33.9989 21.5702C33.9989 21.7963 33.9993 22.0223 33.9996 22.248C34.0017 23.6758 34.0038 25.0952 33.9209 26.5235C33.8278 28.4448 33.3925 30.1469 31.9846 31.5549C30.5796 32.9598 28.8745 33.3981 26.9532 33.4912C25.501 33.5729 24.058 33.5713 22.606 33.5697C22.4041 33.5695 22.2021 33.5693 21.9998 33.5693C21.798 33.5693 21.5963 33.5695 21.3948 33.5697C19.9447 33.5713 18.5014 33.5729 17.0465 33.4912C15.1252 33.3981 13.423 32.9628 12.0151 31.5549C10.6101 30.1499 10.1718 28.4448 10.0788 26.5235C9.99708 25.0712 9.99868 23.6259 10.0003 22.1753C10.0005 21.9737 10.0007 21.772 10.0007 21.5702C10.0007 21.3683 10.0005 21.1666 10.0003 20.9651C9.99868 19.515 9.99708 18.0717 10.0788 16.6168C10.1718 14.6955 10.6071 12.9934 12.0151 11.5854C13.42 10.1805 15.1252 9.74216 17.0465 9.6491C18.4987 9.56739 19.9417 9.56899 21.3937 9.5706C21.5955 9.57082 21.7976 9.57104 21.9998 9.57104C22.2017 9.57104 22.4034 9.57082 22.6049 9.5706C24.0549 9.56899 25.4983 9.56739 26.9532 9.6491C28.8745 9.74216 30.5766 10.1775 31.9846 11.5854C33.3895 12.9904 33.8278 14.6955 33.9209 16.6168C34.0026 18.069 34.001 19.512 33.9994 20.9639Z" fill="#171717"/>
</svg>
