<svg width="152" height="61" viewBox="0 0 152 61" fill="none" xmlns="http://www.w3.org/2000/svg">
<path d="M6.83779 34.2341H2.26733V17.3918H5.21834C5.86612 17.3918 6.33396 17.6437 6.47792 18.2555L6.83779 20.5587L7.19767 20.7026C8.16935 18.1115 9.5009 17.0679 11.2283 17.0679C11.9121 17.0679 12.4519 17.1758 12.8118 17.3558V19.9829C12.8118 20.5227 12.3799 20.9546 11.8041 20.9546H11.1923C8.49324 20.9546 6.83779 23.1858 6.83779 26.8206V34.2341Z" fill="#B6101E"/>
<path d="M23.8744 34.558C20.4196 34.558 18.5482 32.0388 18.5482 29.4477C18.5482 26.9645 20.0237 25.8129 23.0467 25.0932L27.1853 24.0855C28.3009 23.7976 28.5888 23.1138 28.5888 22.4301C28.5888 20.9905 27.7251 20.1988 25.9617 20.1988C23.9104 20.1988 22.111 22.1062 21.2473 22.1062C20.7075 22.1062 20.3836 21.8543 20.0597 21.1705L19.4119 19.587C21.2833 17.9316 23.6945 17.0679 26.1056 17.0679C30.5681 17.0679 32.9433 19.0112 32.9433 23.1138V34.2341H30.6761C30.0283 34.2341 29.5605 33.9822 29.4165 33.3704L29.0567 31.0672L28.6968 30.9232C27.6891 33.7303 26.0337 34.558 23.8744 34.558ZM25.2779 31.427C27.2573 31.427 28.5888 29.4477 28.5888 26.6406V25.7409L24.99 26.7846C23.6945 27.1445 23.0467 27.8642 23.0467 29.0518C23.0467 30.4913 23.9464 31.427 25.2779 31.427Z" fill="#B6101E"/>
<path d="M47.0205 34.558C44.2854 34.558 42.0542 33.6583 40.4707 32.2548L41.3344 30.2754C41.4784 29.8796 41.6943 29.7356 42.0542 29.7356C42.7739 29.7356 43.9255 31.427 46.4807 31.427C47.8842 31.427 48.9998 30.5633 48.9998 29.3757C48.9998 28.2241 48.496 27.4684 46.6966 27.0005L45.0052 26.5327C41.9462 25.705 40.8306 24.6253 40.8306 22.1781C40.8306 19.2271 43.3138 17.0679 47.0205 17.0679C49.5756 17.0679 51.627 17.8956 53.2104 19.3711L52.3827 21.3504C52.2028 21.7463 51.9508 21.8902 51.627 21.8902C50.9072 21.8902 49.9715 20.1988 47.8122 20.1988C46.5167 20.1988 45.437 21.0985 45.437 22.2861C45.437 23.4377 45.9409 24.1575 47.7043 24.6253L49.3957 25.0932C52.4547 25.9209 53.5703 26.9645 53.5703 29.4477C53.5703 32.1828 51.555 34.558 47.0205 34.558Z" fill="#B6101E"/>
<path d="M67.0185 34.558C63.4917 34.558 62.1961 32.9385 62.1961 28.548V19.695H59.533V17.3918H62.1961L62.7719 14.2968C63.2398 12.6773 63.7076 12.2815 65.0032 12.2815H66.7666V17.3918H70.0055V19.695H66.7666V28.692C66.7666 30.8872 67.0545 31.427 69.1778 31.427C69.7536 31.427 70.0055 31.643 70.0055 32.2548V34.1621C69.3217 34.342 68.0622 34.558 67.0185 34.558Z" fill="#B6101E"/>
<path d="M82.276 34.2341H77.7055V17.3918H80.6565C81.3043 17.3918 81.7721 17.6437 81.9161 18.2555L82.276 20.5587L82.6359 20.7026C83.6075 18.1115 84.9391 17.0679 86.6665 17.0679C87.3503 17.0679 87.8901 17.1758 88.25 17.3558V19.9829C88.25 20.5227 87.8181 20.9546 87.2423 20.9546H86.6305C83.9314 20.9546 82.276 23.1858 82.276 26.8206V34.2341Z" fill="#B6101E"/>
<path d="M102.585 34.558C97.2947 34.558 94.0918 30.7792 94.0918 25.7409C94.0918 20.5227 97.6906 17.0679 102.405 17.0679C107.335 17.0679 109.998 20.1268 109.998 24.6613C109.998 24.9852 109.926 25.633 109.819 25.9569H98.8062C98.8062 29.6996 100.714 31.427 103.305 31.427C105.86 31.427 107.083 29.7356 107.803 29.7356C108.235 29.7356 108.487 29.8796 108.847 30.6713L109.531 32.2548C107.983 33.5143 105.824 34.558 102.585 34.558ZM102.153 20.0908C100.21 20.0908 98.8062 21.6383 98.8062 23.7976H105.248C105.248 21.6383 104.168 20.0908 102.153 20.0908Z" fill="#B6101E"/>
<path d="M122.438 34.2341H117.867V9.61838H122.438V34.2341Z" fill="#B6101E"/>
<path d="M135.859 34.2341H131.288V9.61838H135.859V34.2341Z" fill="#B6101E"/>
<path d="M149.28 34.2341H144.709V17.3918H149.28V34.2341ZM146.976 14.2968C145.393 14.2968 144.349 13.4691 144.349 12.1015C144.349 10.734 145.393 9.90628 146.976 9.90628C148.596 9.90628 149.639 10.734 149.639 12.1015C149.639 13.4691 148.596 14.2968 146.976 14.2968Z" fill="#B6101E"/>
<path d="M6.57681 54.7128C4.08083 54.7128 2.2814 52.894 2.2814 50.0497C2.2814 47.2055 4.08083 45.3867 6.57681 45.3867C7.69904 45.3867 8.72452 45.8124 9.47912 46.5476L9.20824 47.2442C9.16954 47.3409 9.09214 47.3989 8.93735 47.3989C8.58908 47.3989 7.98927 46.3928 6.57681 46.3928C4.99022 46.3928 3.80995 47.7859 3.80995 50.0497C3.80995 52.3135 4.99022 53.7066 6.57681 53.7066C7.98927 53.7066 8.58908 52.7005 8.93735 52.7005C9.09214 52.7005 9.16954 52.7585 9.20824 52.8553L9.47912 53.5518C8.72452 54.2871 7.69904 54.7128 6.57681 54.7128Z" fill="#171717"/>
<path d="M18.7446 54.7128C16.2292 54.7128 14.5459 52.7585 14.5459 49.953C14.5459 47.2248 16.326 45.3867 18.6478 45.3867C21.1051 45.3867 22.3821 47.1668 22.3821 49.3725C22.3821 49.5466 22.3434 49.8175 22.3047 49.9723H16.0745C16.0745 52.507 17.4289 53.7066 18.9381 53.7066C20.4473 53.7066 21.2212 52.7005 21.5501 52.7005C21.7049 52.7005 21.8017 52.7392 21.8984 52.9907L22.1306 53.5131C21.2406 54.229 20.2344 54.7128 18.7446 54.7128ZM18.5898 46.3541C17.1386 46.3541 16.0745 47.7085 16.0745 49.2177H20.8536C20.8536 47.6698 20.1377 46.3541 18.5898 46.3541Z" fill="#171717"/>
<path d="M29.5204 54.5773H28.0693V41.3428H29.5204V54.5773Z" fill="#171717"/>
<path d="M37.1556 54.5773H35.7045V41.3428H37.1556V54.5773Z" fill="#171717"/>
<path d="M47.132 54.7128C44.636 54.7128 42.8366 52.894 42.8366 50.0497C42.8366 47.2055 44.636 45.3867 47.132 45.3867C49.628 45.3867 51.4467 47.2055 51.4467 50.0497C51.4467 52.894 49.628 54.7128 47.132 54.7128ZM47.132 53.7066C48.7186 53.7066 49.9182 52.3135 49.9182 50.0497C49.9182 47.7859 48.7186 46.3928 47.132 46.3928C45.5454 46.3928 44.3651 47.7859 44.3651 50.0497C44.3651 52.3135 45.5454 53.7066 47.132 53.7066Z" fill="#171717"/>
<path d="M68.5162 54.7128C66.0396 54.7128 64.5691 52.8166 64.5691 50.0497C64.5691 47.2829 66.0396 45.3867 68.5162 45.3867C69.89 45.3867 70.78 45.9284 71.4572 47.5344L71.6507 47.457L71.7862 45.8897C71.8442 45.6189 71.999 45.5221 72.2118 45.5221H73.1019V57.9827H71.6507V52.6424L71.4572 52.565C70.78 54.171 69.89 54.7128 68.5162 54.7128ZM68.8645 53.6292C70.5865 53.6292 71.6507 52.2555 71.6507 50.0497C71.6507 47.844 70.5865 46.4702 68.8645 46.4702C67.1425 46.4702 66.0976 47.844 66.0976 50.0497C66.0976 52.2555 67.1425 53.6292 68.8645 53.6292Z" fill="#171717"/>
<path d="M82.2815 54.7128C80.2111 54.7128 79.1857 53.6873 79.1857 51.2493V45.5221H80.6368V51.0365C80.6368 52.6618 81.0818 53.7066 82.7071 53.7066C84.0615 53.7066 85.2031 52.3909 85.2031 50.3593V45.5221H86.6543V54.5773H85.7642C85.5514 54.5773 85.3966 54.4806 85.3386 54.2097L85.2031 52.6424L85.0096 52.565C84.3518 54.0549 83.5391 54.7128 82.2815 54.7128Z" fill="#171717"/>
<path d="M95.1149 54.7128C93.3155 54.7128 92.3481 53.397 92.3481 52.062C92.3481 50.785 93.122 50.2045 94.7667 49.7982L97.282 49.179C97.8431 49.0436 97.9785 48.6373 97.9785 48.1922C97.9785 47.0507 97.3207 46.3928 96.0243 46.3928C94.728 46.3928 93.7605 47.515 93.4122 47.515C93.2381 47.515 93.122 47.457 93.0253 47.2248L92.8124 46.7024C93.8186 45.8124 94.9408 45.3867 96.0437 45.3867C98.2301 45.3867 99.3716 46.4315 99.3716 48.3664V54.5773H98.6557C98.4429 54.5773 98.2881 54.4806 98.2301 54.2097L98.0946 52.6424L97.9011 52.565C97.3013 54.0936 96.3532 54.7128 95.1149 54.7128ZM95.4632 53.7066C96.9918 53.7066 97.9785 52.2168 97.9785 50.2626V49.7014L95.2504 50.4173C94.2829 50.6689 93.8186 51.1526 93.8186 51.9652C93.8186 52.9714 94.5151 53.7066 95.4632 53.7066Z" fill="#171717"/>
<path d="M106.907 54.5773H105.456V45.5221H106.326C106.559 45.5221 106.713 45.6189 106.752 45.8897L106.907 47.457L107.1 47.5344C107.758 45.9478 108.532 45.3867 109.403 45.3867C109.732 45.3867 109.983 45.4254 110.177 45.5415V46.2961C110.177 46.4896 110.061 46.625 109.848 46.625H109.442C108.029 46.625 106.907 48.1342 106.907 50.1852V54.5773Z" fill="#171717"/>
<path d="M117.702 54.7128C116.154 54.7128 115.632 53.9775 115.632 51.8491V46.2574H114.142V45.5221H115.632L115.864 43.4518C115.999 42.91 116.193 42.7746 116.58 42.7746H117.083V45.5221H118.882V46.2574H117.083V51.9265C117.083 53.4164 117.257 53.7066 118.573 53.7066C118.785 53.7066 118.882 53.8034 118.882 54.0162V54.5386C118.611 54.6354 118.108 54.7128 117.702 54.7128Z" fill="#171717"/>
<path d="M127.993 54.7128C125.478 54.7128 123.794 52.7585 123.794 49.953C123.794 47.2248 125.574 45.3867 127.896 45.3867C130.353 45.3867 131.63 47.1668 131.63 49.3725C131.63 49.5466 131.592 49.8175 131.553 49.9723H125.323C125.323 52.507 126.677 53.7066 128.186 53.7066C129.696 53.7066 130.47 52.7005 130.798 52.7005C130.953 52.7005 131.05 52.7392 131.147 52.9907L131.379 53.5131C130.489 54.229 129.483 54.7128 127.993 54.7128ZM127.838 46.3541C126.387 46.3541 125.323 47.7085 125.323 49.2177H130.102C130.102 47.6698 129.386 46.3541 127.838 46.3541Z" fill="#171717"/>
<path d="M139.756 54.7128C138.208 54.7128 137.685 53.9775 137.685 51.8491V46.2574H136.195V45.5221H137.685L137.917 43.4518C138.053 42.91 138.246 42.7746 138.633 42.7746H139.136V45.5221H140.936V46.2574H139.136V51.9265C139.136 53.4164 139.311 53.7066 140.626 53.7066C140.839 53.7066 140.936 53.8034 140.936 54.0162V54.5386C140.665 54.6354 140.162 54.7128 139.756 54.7128Z" fill="#171717"/>
<path d="M148.789 54.7128C147.241 54.7128 146.719 53.9775 146.719 51.8491V46.2574H145.229V45.5221H146.719L146.951 43.4518C147.086 42.91 147.28 42.7746 147.667 42.7746H148.17V45.5221H149.969V46.2574H148.17V51.9265C148.17 53.4164 148.344 53.7066 149.66 53.7066C149.873 53.7066 149.969 53.8034 149.969 54.0162V54.5386C149.698 54.6354 149.195 54.7128 148.789 54.7128Z" fill="#171717"/>
</svg>
