<svg width="43" height="43" viewBox="0 0 43 43" fill="none" xmlns="http://www.w3.org/2000/svg">
<g clip-path="url(#clip0_2024_441)">
<path d="M21.3333 0.236816C9.552 0.236816 0 9.78882 0 21.5701C0 33.3515 9.552 42.9035 21.3333 42.9035C33.1147 42.9035 42.6667 33.3515 42.6667 21.5701C42.6667 9.78882 33.1147 0.236816 21.3333 0.236816ZM31.8116 14.8519L28.3093 31.3497C28.0516 32.5195 27.3547 32.8039 26.3822 32.2528L21.0489 28.3239L18.4782 30.8022C18.3523 30.9652 18.1906 31.0972 18.0057 31.1882C17.8209 31.2791 17.6176 31.3264 17.4116 31.3266H17.4027L17.7813 25.8973L27.6658 16.9693C28.0924 16.5906 27.5698 16.3755 27.0027 16.7542L14.7911 24.4448L9.52889 22.8021C8.39111 22.4413 8.35911 21.6644 9.76889 21.1062L30.3307 13.1808C31.2871 12.8324 32.1191 13.4084 31.8098 14.8537L31.8116 14.8519Z" fill="#171717"/>
</g>
<defs>
<clipPath id="clip0_2024_441">
<rect width="42.6667" height="42.6667" fill="white" transform="translate(0 0.236816)"/>
</clipPath>
</defs>
</svg>
